<svg xmlns="http://www.w3.org/2000/svg" xmlns:xlink="http://www.w3.org/1999/xlink" version="1.1" x="0px" y="0px" viewBox="0 0 29 37.5" xml:space="preserve"><g transform="translate(-390 -680)"><g xmlns="http://www.w3.org/2000/svg" xmlns:xlink="http://www.w3.org/1999/xlink"><path d="M415,707v-27h-2h-16v2h3v4.277c-0.295-0.172-0.634-0.277-1-0.277c-1.105,0-2,0.896-2,2c0,0.366,0.105,0.705,0.277,1H395v7    h1v-6h1v14h2v-9h1v9h2v-14h1v6h1v-7h-3v-7h5.586l6.414,6.415V707h-3v2h8v-2H415z M409.414,682H413v3.587L409.414,682z"/></g></g><text x="0" y="45" fill="#000000" font-size="5px" font-weight="bold" font-family="'Helvetica Neue', Helvetica, Arial-Unicode, Arial, Sans-serif">Created by Hea Poh Lin</text><text x="0" y="50" fill="#000000" font-size="5px" font-weight="bold" font-family="'Helvetica Neue', Helvetica, Arial-Unicode, Arial, Sans-serif">from the Noun Project</text></svg>