<svg xmlns="http://www.w3.org/2000/svg" xmlns:xlink="http://www.w3.org/1999/xlink" version="1.1" x="0px" y="0px" viewBox="0 0 379.483 523.64125" style="enable-background:new 0 0 379.483 418.913;" xml:space="preserve"><g><path d="M98.486,365.902c-5.063,0-10.548,0.741-15.891,2.847c0.002,0.005,0.004,0.011,0.007,0.017   c1.267,3.101,4.257,4.977,7.411,4.978c1.006,0,2.028-0.191,3.018-0.595c2.254-0.92,3.856-2.752,4.567-4.895   c0.71,2.143,2.313,3.976,4.568,4.896c0.989,0.403,2.013,0.595,3.02,0.595c3.155,0.001,6.144-1.877,7.411-4.979   c0.137-0.335,0.258-0.657,0.393-0.991c-0.146-0.037-0.277-0.073-0.428-0.11C108.988,366.781,104.008,365.899,98.486,365.902z"/><ellipse transform="matrix(0.2268 -0.9739 0.9739 0.2268 -223.145 332.1235)" cx="97.599" cy="306.599" rx="22.495" ry="22.495"/><path d="M116.766,112.208c-0.98-0.328-2.416-0.767-4.203-1.209c-3.574-0.882-8.557-1.765-14.077-1.763   c-6.892,0.002-14.558,1.368-21.589,5.692c-5.666,33.609-6.746,61.957-6.75,78.866c0,9.036,0.311,14.796,0.406,16.354v59.709   c-1.665,4.759-4.036,13.96-4.03,27.704c-0.002,16.006,3.216,38.131,14.233,66.538c5.412-2.133,10.897-3.01,15.952-3.169   c-4.878-12.203-8.204-23.065-10.391-32.612c-3.866-2.001-7.155-4.987-9.516-8.78c-3.459-5.555-4.545-12.123-3.059-18.496   c1.378-5.913,4.792-10.865,9.391-14.23c0.403-3.378,0.953-6.107,1.484-8.196c0.065-0.258,0.129-0.479,0.194-0.717h25.576   c0.59,2.173,1.225,5.135,1.676,8.929c2.496,1.826,4.648,4.124,6.333,6.829c3.457,5.555,4.543,12.123,3.061,18.496   c-1.681,7.214-6.386,13.005-12.588,16.207c-2.185,9.529-5.504,20.368-10.367,32.54c6.636,0.008,12.427,1.149,16.341,2.189   c10.704-27.929,13.834-49.711,13.832-65.528c0.006-13.744-2.365-22.945-4.03-27.703V210.12c0.097-1.591,0.403-7.335,0.405-16.325   c-0.004-17.297-1.135-46.562-7.146-81.188c-0.012-0.005-0.016-0.006-0.029-0.011C117.629,112.506,117.254,112.37,116.766,112.208z    M101.049,193.794c0,0.088,0,0.17,0,0.257h-6.9c0-0.087,0-0.169,0-0.257c-0.004-12.375,0.627-31.557,3.449-54.523   C100.42,162.238,101.052,181.419,101.049,193.794z"/><path d="M339.063,45V21h-21.5V0h-24v21h-35.034L243.186,5.657L227.844,21H38.066v24H95.1v44.407   c-0.318-0.093-0.638-0.183-0.969-0.25c-6.49-1.335-12.834,2.847-14.168,9.34c-0.703,3.423-1.354,6.801-1.962,10.137   c6.923-3.322,14.111-4.4,20.484-4.399c7.935,0.008,14.659,1.634,18.412,2.774c-0.522-2.808-1.073-5.643-1.662-8.511   c-1.335-6.493-7.677-10.674-14.169-9.34c-0.33,0.068-0.649,0.157-0.967,0.25V45h148.488l44.976,44.976v328.937h24V45H339.063z    M293.564,56.034L282.529,45h11.034V56.034z"/><rect y="281.831" width="48" height="8"/><rect x="331.483" y="281.831" width="48" height="8"/><rect x="141" y="281.831" width="132" height="8"/></g><text x="0" y="433.913" fill="#000000" font-size="5px" font-weight="bold" font-family="'Helvetica Neue', Helvetica, Arial-Unicode, Arial, Sans-serif">Created by Gan Khoon Lay</text><text x="0" y="438.913" fill="#000000" font-size="5px" font-weight="bold" font-family="'Helvetica Neue', Helvetica, Arial-Unicode, Arial, Sans-serif">from the Noun Project</text></svg>