<svg xmlns="http://www.w3.org/2000/svg" xmlns:xlink="http://www.w3.org/1999/xlink" version="1.1" x="0px" y="0px" viewBox="0 0 90 112.5" enable-background="new 0 0 90 90" xml:space="preserve"><g><path d="M63.543,27.88l-4.127-0.002c0.75-0.769,1.218-1.816,1.218-2.975c0-1.107-0.434-2.108-1.126-2.866V9.665h2.168   c1.979,0,3.583-1.604,3.583-3.582c0-1.978-1.604-3.583-3.583-3.583H25.062c-1.978,0-3.583,1.604-3.583,3.583v77.835   c0,1.979,1.604,3.582,3.583,3.582s3.582-1.603,3.582-3.582V25.245l15.068-15.068c0.15-0.15,0.264-0.326,0.34-0.512H58.09v11.341   c-0.527-0.232-1.106-0.367-1.721-0.367c-2.353,0-4.262,1.909-4.262,4.265c0,1.188,0.49,2.262,1.276,3.035   c-2.654,0.313-4.305,2.614-4.305,5.469v13.088c0,2.544,3.361,2.544,3.361,0V33.758h1.07l-0.006,34.564   c0,1.319,1.072,2.39,2.389,2.39c1.321,0,2.391-1.07,2.391-2.39l0.005-20.048h1.062l-0.004,20.048c0,1.319,1.07,2.39,2.389,2.39   s2.39-1.07,2.39-2.39l0.008-34.564h1.051v12.737c0,2.562,3.343,2.562,3.337,0V33.484C68.521,30.653,66.855,27.88,63.543,27.88z    M28.644,20.801V9.665h11.135L28.644,20.801z"/></g><text x="0" y="105" fill="#000000" font-size="5px" font-weight="bold" font-family="'Helvetica Neue', Helvetica, Arial-Unicode, Arial, Sans-serif">Created by Adriano Emerick</text><text x="0" y="110" fill="#000000" font-size="5px" font-weight="bold" font-family="'Helvetica Neue', Helvetica, Arial-Unicode, Arial, Sans-serif">from the Noun Project</text></svg>